<?xml version="1.0" encoding="utf-8"?>
<!DOCTYPE svg PUBLIC "-//W3C//DTD SVG 1.0//EN" "http://www.w3.org/TR/2001/REC-SVG-20010904/DTD/svg10.dtd">
<svg version="1.0" xmlns="http://www.w3.org/2000/svg" width="300px" height="300px" viewBox="0 0 300 300" preserveAspectRatio="xMidYMid meet">
 <g fill="#020200">
  <path d="M0 150 l0 -150 150 0 150 0 0 150 0 150 -150 0 -150 0 0 -150z m184.25 108.95 c1.35 -0.50 3.80 -2 5.40 -3.30 l2.85 -2.30 0 -6.45 0 -6.40 -7 0 -7 0 0 1.50 0 1.50 5.20 0 5.20 0 0.35 4.20 c0.45 5.25 -0.10 6.60 -3.40 8.25 -1.70 0.80 -3.55 1.25 -6.50 1.40 -7.30 0.50 -12.30 -1.80 -15.10 -6.90 -1.30 -2.40 -1.50 -3.25 -1.65 -8.05 -0.30 -8.35 1.60 -12.45 7.15 -15.20 4.90 -2.35 13.60 -2.10 17.55 0.60 1.45 1 1.80 1.05 2 0.45 0.45 -1.10 -0.40 -1.90 -3.55 -3.45 -7.25 -3.55 -14.95 -2.40 -20.75 3 -3.25 3.05 -5.30 6.65 -6.05 10.80 -0.50 2.85 -0.50 3.80 0.20 6.70 1.45 5.70 5.15 10.45 10.15 12.90 5.05 2.45 9.75 2.70 14.95 0.75z m-56.75 -8.55 c2.05 -4.45 5.80 -12.40 8.30 -17.65 4.45 -9.35 4.50 -9.50 3.30 -9.65 -0.70 -0.10 -1.50 0.10 -1.85 0.50 -0.70 0.75 -11.75 25.05 -11.75 25.85 0 0.30 -0.85 0.55 -1.90 0.55 -1.80 0 -2 -0.15 -2.70 -1.85 -0.40 -1.05 -3.05 -7 -5.90 -13.25 -5 -10.90 -5.25 -11.40 -6.60 -11.40 -0.75 0 -1.40 0.15 -1.40 0.35 0 0.70 16.15 34.65 16.45 34.65 0.15 0 2 -3.65 4.05 -8.10z m44.90 -62.90 c5.75 -1.15 12.75 -3.40 17.45 -5.50 5.25 -2.40 9.80 -5.75 14.40 -10.60 3.40 -3.65 4.70 -5.45 6.95 -10.05 4.25 -8.40 4.85 -11.40 5.25 -25.10 0.35 -12.90 0.65 -13.95 4.05 -15.75 1.75 -0.95 1.55 -0.95 -18.25 -0.95 l-20 0 1.80 0.95 c1.25 0.65 2.20 1.75 2.95 3.20 1.05 2.25 1.05 2.60 0.90 20.15 l-0.15 17.90 -1.65 4.75 c-1.85 5.25 -2.30 6 -3.65 6 -0.75 0 -0.95 0.35 -0.95 1.55 0 3.80 -5.15 9.15 -12.70 13.15 -2.95 1.55 -2.60 1.60 3.60 0.30z m-25.25 -2.85 c-0.80 -6.40 -4.35 -15.25 -9.55 -23.90 -1 -1.65 -5.55 -8.55 -10.15 -15.30 -10.45 -15.35 -13 -19.40 -16 -25.70 -5 -10.55 -6.20 -16.40 -6.20 -31 0 -11.65 0.70 -15.85 3.70 -22.50 3.45 -7.60 10.80 -15.75 19.40 -21.60 2.30 -1.55 4.05 -2.90 3.95 -3.05 -0.30 -0.25 -9.65 2.15 -14.25 3.70 -12.85 4.30 -26.35 14 -34.20 24.60 -7.60 10.20 -11.35 20.10 -13.40 35.10 -1.15 8.45 -1.10 13.10 0.30 22.50 3.85 25.75 18.95 45.10 42.95 55.15 4.55 1.90 5.85 2.15 3.55 0.65 -2.25 -1.50 -8.80 -7.90 -11.55 -11.35 -7.85 -9.85 -13.50 -21.20 -18 -36.40 -1.90 -6.45 -3.70 -15.15 -3.70 -18.10 0 -1.90 0.05 -1.95 1.70 -1.95 l1.70 0 5 10.15 c2.75 5.55 6.55 12.45 8.40 15.35 11.95 18.55 26.60 33.85 41.30 43.15 2.50 1.55 4.75 2.85 4.95 2.85 0.25 0 0.30 -1.05 0.10 -2.35z m23.80 -20.75 c-0.65 -0.90 -1.75 -2.45 -2.55 -3.45 -0.95 -1.25 -1.40 -2.45 -1.40 -3.65 0 -1.70 0.10 -1.80 1.65 -1.80 0.90 0 1.90 0.15 2.15 0.40 0.30 0.20 -0.25 -0.35 -1.20 -1.25 -1.70 -1.60 -4.90 -3.35 -7.30 -3.95 l-1.30 -0.30 1.50 4.05 c1.85 5.25 3.70 7.90 6.70 9.95 1.30 0.85 2.50 1.60 2.65 1.60 0.10 0 -0.30 -0.75 -0.90 -1.60z m9.05 -17.20 c0 -0.40 -0.35 -0.70 -0.75 -0.70 -0.75 0 -1.05 1.05 -0.45 1.65 0.50 0.45 1.20 -0.10 1.20 -0.95z m26.20 -81.40 l-0.35 -14.35 -1.90 -0.95 c-7.80 -4 -21.55 -8 -31.70 -9.25 -1.35 -0.15 -3.10 -0.40 -3.85 -0.55 -1.15 -0.25 -1.30 -0.10 -1.05 0.75 0.20 0.85 0.65 1.05 2.20 1.05 3.70 0 13.55 5.90 20.15 12.05 2.10 1.95 5.30 5.50 7.10 7.90 3.25 4.35 7.65 12.40 8.75 16.05 0.35 1.10 0.70 1.90 0.80 1.80 0.10 -0.10 0.05 -6.60 -0.15 -14.50z m-28.40 -0.40 c-0.45 -4.60 -1.15 -6.90 -2.55 -8.70 -1.50 -1.85 -1.90 -1.45 -1 1.05 0.40 1.10 0.70 2.85 0.75 3.90 0 1.75 -0.10 1.85 -1.50 1.85 -1.35 0 -1.50 0.10 -1 1 0.45 0.85 4.80 4.50 5.40 4.50 0.10 0 0.05 -1.65 -0.10 -3.60z m-23.30 -11.10 c-0.65 -0.65 -1.75 0.35 -1.25 1.20 0.25 0.40 0.55 0.40 1.05 -0.05 0.50 -0.40 0.60 -0.75 0.20 -1.15z"/>
 </g>
 <g fill="#856f00">
  <path d="M192 247.50 c0 -8.15 0.05 -8.50 1 -8.50 0.95 0 1 0.35 1 7.90 0 7.60 -0.25 9.10 -1.60 9.10 -0.20 0 -0.40 -3.80 -0.40 -8.50z"/>
  <path d="M187.50 245.75 c0 -0.60 -0.90 -0.75 -5.25 -0.75 l-5.25 0 0 -3 c0 -2.65 0.10 -3 1 -3 0.85 0 1 0.35 1 2 l0 2 5 0 5 0 0 1.75 c0 1.20 -0.25 1.75 -0.75 1.75 -0.40 0 -0.75 -0.35 -0.75 -0.75z"/>
  <path d="M153.50 190.55 c1.90 -0.65 7.15 -1.55 8.65 -1.55 1.65 0 1.80 1.25 0.25 1.70 -1.75 0.45 -10.40 0.30 -8.90 -0.15z"/>
  <path d="M68.30 121.40 c-0.40 -1.50 -0.40 -11.30 0 -12.75 0.20 -0.65 0.65 -1.15 1 -1.15 0.55 0 0.70 1.45 0.70 7.50 0 6.05 -0.15 7.50 -0.70 7.50 -0.35 0 -0.80 -0.50 -1 -1.10z"/>
  <path d="M206 76.05 c0 -8.45 0.10 -10.05 0.75 -10.05 1.05 0 1.30 2.35 1.15 11.50 -0.15 7.40 -0.25 8.25 -1 8.40 -0.85 0.15 -0.90 -0.55 -0.90 -9.85z"/>
  <path d="M81 79 c-0.40 -0.25 -1.30 -0.50 -2 -0.50 -2.55 -0.05 -2.80 -0.70 -1.25 -3.35 2.70 -4.70 7.85 -11.15 12.15 -15.20 l4.35 -4.15 0.15 2.65 c0.15 2.35 -0.10 3 -2.15 6.45 -2.05 3.45 -5.25 11.90 -5.25 13.85 0 0.55 -0.65 0.75 -2.60 0.75 -1.45 0 -3 -0.25 -3.40 -0.50z"/>
  <path d="M166.30 54.40 c-0.15 -0.65 -0.30 -3.70 -0.30 -6.80 0 -4.55 -0.15 -5.70 -0.75 -5.90 -1.35 -0.55 -0.80 -1.20 1 -1.20 l1.75 0 0 7.50 c0 6.05 -0.15 7.50 -0.70 7.50 -0.35 0 -0.80 -0.50 -1 -1.10z"/>
  <path d="M134.90 41.35 c-0.80 -0.30 -1.40 -0.80 -1.40 -1.15 0 -0.75 1.25 -1.05 6.25 -1.45 l4 -0.35 -3.65 1.80 c-2.05 1 -3.70 1.80 -3.75 1.75 -0.05 -0.05 -0.70 -0.30 -1.45 -0.60z"/>
  <path d="M158 39.50 c-0.70 -0.20 -2.10 -0.40 -3.10 -0.45 -1 -0.05 -2 -0.25 -2.15 -0.55 -0.20 -0.30 1.80 -0.50 5.60 -0.50 6.50 0 8.15 0.30 8.15 1.30 0 0.55 -0.85 0.70 -3.60 0.65 -2 -0.05 -4.20 -0.25 -4.90 -0.45z"/>
 </g>
 <g fill="#9f8400">
  <path d="M177.50 240 c0 -0.95 0.35 -1 8 -1 7.65 0 8 0.05 8 1 0 0.95 -0.35 1 -8 1 -7.65 0 -8 -0.05 -8 -1z"/>
  <path d="M111 225.50 c0 -2.45 0.80 -2.60 1.80 -0.25 0.90 2.25 0.90 2.25 -0.55 2.25 -1.10 0 -1.25 -0.20 -1.25 -2z"/>
  <path d="M159 189.30 c1.80 -0.60 3.95 -1.50 4.85 -1.95 2.05 -1.05 2.15 -1.05 2.15 0.15 0 0.65 0.35 1 1 1 1.35 0 1.25 1.30 -0.10 1.70 -0.65 0.15 -3.40 0.30 -6.15 0.25 l-5 0 3.25 -1.15z"/>
  <path d="M71.30 91.15 c0.60 -2.65 2.35 -7.40 4 -11.05 l1.65 -3.65 2.40 0.35 c1.35 0.15 2.80 0.50 3.25 0.75 1.30 0.70 2.90 0.55 2.90 -0.30 0 -0.40 0.35 -0.75 0.80 -0.75 0.70 0 0.75 0.45 0.45 3.40 -0.40 3.95 -1.55 9.25 -2.30 10.65 -0.45 0.85 -0.95 1 -3.60 0.90 -1.75 -0.05 -3.60 0.15 -4.20 0.45 -0.60 0.35 -2.10 0.60 -3.40 0.60 -2.20 0 -2.25 -0.05 -1.95 -1.35z"/>
  <path d="M92.50 60.55 c0.25 -0.55 0.50 -1.50 0.50 -2.20 0 -1.40 1.05 -2.40 6.25 -5.85 7.70 -5.15 15.35 -8.45 25.90 -11.20 6.30 -1.60 10.40 -2.10 11.80 -1.35 1.35 0.75 1.35 1.40 0 1.80 -2.60 0.85 -12.05 7.80 -16.65 12.35 l-5 4.90 -3.80 0 c-2.30 0 -4.05 -0.25 -4.40 -0.60 -0.45 -0.45 -0.60 -0.30 -0.60 0.75 l0 1.35 -4.15 0 c-2.35 0 -4.40 -0.25 -4.70 -0.55 -0.60 -0.60 -2.65 0.20 -2.65 1.05 0 0.30 -0.70 0.50 -1.50 0.50 -1.35 0 -1.50 -0.10 -1 -0.95z"/>
 </g>
 <g fill="#af9200">
  <path d="M134.50 224.20 c0.95 -2.40 1.45 -2.70 4.75 -2.70 1.70 0 3.20 0.15 3.40 0.30 0.40 0.40 -0.15 1.70 -0.75 1.70 -0.30 0 -0.80 0.30 -1.10 0.70 -0.30 0.40 -1.95 0.85 -3.70 1.05 l-3.10 0.35 0.50 -1.40z"/>
  <path d="M164.15 189.30 c0.20 -0.50 0.35 -1.20 0.35 -1.60 0 -0.40 0.55 -0.95 1.25 -1.20 0.70 -0.25 2.55 -1.30 4.10 -2.30 3.25 -2.05 4.05 -1.90 4.95 0.85 0.30 0.95 0.95 1.75 1.40 1.85 0.45 0.10 0.80 0.50 0.80 0.85 0 0.85 -3.90 1.75 -9.20 2.10 -3.60 0.30 -3.95 0.25 -3.65 -0.55z"/>
  <path d="M220.70 121.15 c-0.50 -0.85 -2.35 -0.90 -24.65 -1.05 -22.45 -0.15 -24.10 -0.20 -23.95 -1 0.15 -0.80 2.30 -0.85 30.05 -1 l29.90 -0.10 -0.15 1.10 c-0.15 1.05 -0.50 1.15 -3.90 1.45 -2.05 0.15 -4.25 0.50 -4.85 0.85 -1.45 0.80 -1.80 0.75 -2.45 -0.25z"/>
  <path d="M69.20 100.90 c0.15 -0.65 0.40 -2.05 0.55 -3.15 0.15 -1.10 0.60 -3.15 1 -4.55 0.65 -2.30 0.85 -2.55 1.95 -2.35 0.75 0.15 1.95 -0.20 3.05 -0.85 1.50 -0.95 2.05 -1.05 3.05 -0.55 2.25 1 3.75 0.70 4.35 -0.95 0.30 -0.80 0.90 -1.50 1.30 -1.50 0.60 0 0.65 0.80 0.35 4.85 -0.20 2.80 -0.60 5 -0.90 5.20 -0.35 0.20 -1.75 0.55 -3.15 0.70 -1.65 0.25 -3.10 0.85 -4.35 1.80 -1 0.80 -2.40 1.45 -3.10 1.45 -0.70 0 -1.30 0.25 -1.30 0.50 0 0.30 -0.70 0.50 -1.50 0.50 -1.30 0 -1.50 -0.15 -1.30 -1.10z"/>
  <path d="M102.50 75.40 c0 -1.90 -0.05 -2 -0.70 -1.15 -0.55 0.75 -1.50 0.95 -4.95 1.15 -3.80 0.20 -4.45 0.10 -5.65 -0.85 -0.75 -0.60 -2.05 -1.05 -3.05 -1.05 -1.90 0 -1.90 0.15 -0.10 -4.70 1.85 -5 6.85 -11.80 8.60 -11.80 0.35 0 1.15 0.45 1.85 1 0.85 0.70 2.05 1 3.85 1 2.45 0 2.60 -0.10 2.75 -1.30 0.25 -2.10 1.60 -2.65 3.10 -1.25 1.05 1 1.60 1.10 4.75 0.95 1.95 -0.05 3.55 0.05 3.55 0.25 0 0.25 -1 1.85 -2.25 3.60 -2.75 3.80 -4.95 8.50 -6.05 12.95 l-0.80 3.30 -2.45 0 -2.45 0 0 -2.10z"/>
  <path d="M160.65 40.30 c-2 -0.55 -3.65 -1.25 -3.65 -1.45 0 -0.20 3 -0.30 6.60 -0.25 5.85 0.15 6.65 0.25 6.80 1.05 0.15 0.70 -0.20 0.85 -1.60 0.85 -1 0 -1.80 0.25 -1.80 0.50 0 0.75 -2.30 0.50 -6.35 -0.70z"/>
 </g>
 <g fill="#c2a200">
  <path d="M133.50 235.50 l0 -4.50 2.20 0 c1.25 0 2.35 0.20 2.50 0.45 0.35 0.55 -3.55 8.55 -4.20 8.55 -0.30 0 -0.50 -1.75 -0.50 -4.50z"/>
  <path d="M173.90 188.20 c-0.25 -0.20 -0.40 -0.75 -0.40 -1.20 0 -0.50 -0.50 -1.50 -1.10 -2.25 l-1.10 -1.40 1.50 -1 c3.50 -2.50 7.35 -7.35 6.85 -8.65 -0.45 -1.20 3.15 -0.85 5.75 0.55 1.35 0.75 3.20 1.25 4.35 1.25 1.10 0 2.55 0.35 3.25 0.75 0.70 0.40 1.85 1 2.60 1.35 1.65 0.75 2.05 2.10 0.95 3.10 -3.30 3 -21.30 8.95 -22.65 7.50z"/>
  <path d="M172.40 167.40 c-2.35 -0.50 -2.40 -0.55 -2.40 -2.35 0.05 -1.60 0.90 -3.55 1.65 -3.55 0.15 0 1.05 1.20 2.05 2.70 1.75 2.60 2.20 3.85 1.45 3.75 -0.25 -0.05 -1.45 -0.30 -2.75 -0.55z"/>
  <path d="M186.50 142.25 c0 -14.90 0 -15.25 1 -15.25 1 0 1 0.35 1 15.25 0 14.90 0 15.25 -1 15.25 -1 0 -1 -0.35 -1 -15.25z"/>
  <path d="M216 141 c0 -5.65 -0.15 -7 -0.70 -7 -0.70 0 -3.80 -3.20 -3.80 -3.90 0 -0.20 -0.40 -0.60 -0.90 -0.85 -2.55 -1.40 -4.10 -2.55 -4.10 -3.05 0 -0.30 -0.35 -0.85 -0.75 -1.20 -0.45 -0.40 -0.75 -1.45 -0.75 -2.80 0 -3.45 0.95 -3.85 9.55 -3.60 6.25 0.15 7.10 0.25 7.75 1.10 0.95 1.35 0.90 1.75 -0.55 2.40 -0.70 0.30 -1.80 1.40 -2.40 2.35 -1 1.65 -1.10 2.60 -1.40 12.55 -0.15 5.90 -0.35 10.80 -0.35 10.90 -0.05 0.05 -0.45 0.10 -0.85 0.10 -0.65 0 -0.75 -1.10 -0.75 -7z"/>
  <path d="M68.70 106.15 c0.35 -5.20 1.10 -6.65 3.30 -6.65 0.60 0 1.90 -0.65 2.90 -1.45 1.15 -0.90 2.75 -1.55 4.30 -1.80 3.15 -0.45 3.80 -0.70 3.80 -1.55 0 -1 1.40 -0.85 1.70 0.20 0.50 1.80 0.85 13.35 0.40 14.05 -0.75 1.10 -5.80 0.50 -7.25 -0.85 -1.55 -1.45 -1.70 -1.40 -2.10 0.55 -0.50 2.10 -0.95 2.35 -4.45 2.35 l-2.95 0 0.35 -4.85z"/>
  <path d="M102.25 94 c-0.25 -1.25 -0.60 -1.50 -1.75 -1.50 -1.10 0 -1.45 -0.25 -1.60 -1.10 -0.20 -1.50 -1.80 -1.85 -6.95 -1.55 -2.80 0.20 -4.40 0.10 -4.65 -0.25 -0.20 -0.30 -1.05 -0.40 -2.15 -0.25 -1.75 0.30 -1.80 0.25 -1.55 -1.15 0.15 -0.80 0.55 -3.15 0.90 -5.20 0.35 -2.05 1 -5.30 1.45 -7.25 l0.80 -3.50 2.20 -0.15 c1.65 -0.15 2.60 0.10 3.70 0.95 1.25 0.90 1.90 1.05 4.20 0.80 2.20 -0.25 3 -0.60 4.45 -2.05 1.95 -1.95 2.75 -2.20 3.65 -1.10 0.50 0.55 0.45 1.05 -0.15 2.25 -1.25 2.40 -1.05 3.05 1 3.05 1.80 0 1.80 0.05 1.50 1.65 -0.20 0.85 -0.45 5.25 -0.65 9.75 l-0.30 8.10 -1.90 0 c-1.65 0 -1.90 -0.15 -2.20 -1.50z"/>
  <path d="M166.80 56.40 c-0.15 -0.65 -0.30 -4.10 -0.30 -7.75 l0 -6.60 -2 -0.60 c-2.35 -0.70 -2.60 -1.45 -0.55 -1.45 0.80 0 1.55 -0.25 1.65 -0.55 0.20 -0.60 5.40 -0.75 7.80 -0.20 1.45 0.30 1.65 0.50 1.40 1.50 -0.15 0.65 -0.10 1.35 0.20 1.50 0.50 0.30 0.70 3.75 0.25 3.75 -0.15 0 -1.40 -0.60 -2.80 -1.30 -1.40 -0.70 -2.85 -1.15 -3.25 -1 -0.85 0.35 -0.95 5.10 -0.15 8.90 0.45 1.95 0.45 2.65 0 2.80 -0.30 0.10 -0.55 0.60 -0.55 1.15 0 1.35 -1.30 1.20 -1.70 -0.15z"/>
 </g>
 <g fill="#d4b100">
  <path d="M122.30 260.90 c-1.50 -2.30 -18.35 -38.50 -18.05 -38.80 0.15 -0.15 1.20 -0.30 2.40 -0.25 4.60 0.05 4.70 0.05 5.35 1.80 0.30 0.85 0.90 2.15 1.25 2.85 1.15 2.20 9.10 19.70 9.45 20.90 0.35 1.10 1.30 1.55 1.30 0.55 0 -1.20 10.65 -23.90 11.35 -24.15 0.40 -0.15 1.40 -0.30 2.15 -0.30 0.80 0 1.65 -0.35 1.90 -0.80 0.30 -0.50 0.95 -0.70 2 -0.60 l1.55 0.15 -2.55 5.40 c-2.50 5.20 -2.65 5.40 -3.95 5.10 l-1.35 -0.30 -0.05 3.20 c-0.05 3.35 -0.05 3.45 -8.85 22.15 -0.65 1.40 -1.65 2.95 -2.15 3.40 -0.95 0.85 -1 0.85 -1.75 -0.30z"/>
  <path d="M172.65 261.50 c-11 -2.35 -17.55 -13.30 -15.10 -25.10 1.15 -5.40 5.90 -11.35 10.75 -13.45 3.80 -1.60 8.60 -2.20 12.55 -1.60 3.95 0.60 8.45 2.65 10.45 4.70 l1.35 1.40 -1.65 2 c-0.85 1.15 -1.70 2.05 -1.80 2.05 -0.15 0 -1.35 -0.75 -2.70 -1.70 -3.25 -2.25 -8.25 -3.25 -11.85 -2.35 -7.40 1.85 -11.05 7.10 -10.55 15.20 0.40 6.55 3.80 10.95 9.80 12.65 3.40 1 7.40 0.65 10.60 -0.95 2.90 -1.40 3.50 -2.75 3.15 -6.70 l-0.30 -3.15 -4.90 0 -4.95 0 0 -2.50 0 -2.50 8 0 8 0 0 7.90 0 7.85 -2.65 2.15 c-1.40 1.15 -3.85 2.55 -5.35 3.15 -3.05 1.15 -9.60 1.65 -12.85 0.95z"/>
  <path d="M125.65 188.65 c-3.50 -0.85 -5.15 -1.45 -5.15 -1.95 0 -0.40 0.20 -0.70 0.45 -0.70 0.25 0 0.55 -0.45 0.65 -1 0.15 -1 0.20 -1 1.95 0.20 1 0.70 3.20 1.95 4.90 2.80 4.70 2.40 4.45 2.45 -2.80 0.65z"/>
  <path d="M195.20 180.25 c0.15 -0.45 0 -0.75 -0.40 -0.75 -0.35 0 -1.30 -0.50 -2.05 -1.10 -0.90 -0.70 -2.20 -1.10 -3.80 -1.20 -1.40 -0.05 -3.50 -0.65 -4.85 -1.35 -1.30 -0.65 -2.60 -1.10 -2.90 -1 -0.80 0.25 -1.40 -0.75 -2.40 -4.10 -1.45 -4.75 -3.70 -8.55 -6.95 -11.55 -1.60 -1.50 -3.05 -2.65 -3.20 -2.50 -0.15 0.10 0.70 1.45 1.80 2.95 2.05 2.70 2.50 4 1.55 4.60 -0.25 0.15 -0.50 0.85 -0.50 1.55 0 1.60 -0.90 1.55 -3.80 -0.40 -3 -2.05 -4.85 -4.70 -6.70 -9.90 -0.80 -2.20 -1.85 -4.65 -2.30 -5.50 -0.50 -0.80 -0.75 -1.65 -0.55 -1.85 0.60 -0.55 6.40 0.60 9.05 1.90 3.30 1.50 8.25 6.25 10 9.50 0.80 1.45 2.15 4.60 3.05 7.05 1.25 3.50 1.70 4.30 2.15 3.80 0.75 -0.95 3.60 -9.55 3.60 -10.95 0.05 -4.50 1.60 -4.45 2.40 0.05 0.60 3.40 2.05 6 3.40 6 0.30 0 0.85 0.30 1.15 0.70 0.30 0.40 1.60 0.85 2.80 1.05 1.35 0.15 2.25 0.60 2.25 0.95 0 0.35 1 1.55 2.25 2.65 3.85 3.55 3.60 5 -1.55 8.40 -2.80 1.85 -4 2.20 -3.50 1z"/>
  <path d="M212.75 140.45 c-1.10 -0.20 -2.80 -0.40 -3.75 -0.40 -2.10 -0.05 -6.60 -2.25 -7.10 -3.45 -0.20 -0.45 -0.35 -3.35 -0.35 -6.40 -0.05 -5.40 0 -5.60 1.45 -7.60 1.20 -1.65 1.80 -2.10 3 -2.10 1.35 0 1.45 0.10 0.90 0.95 -0.50 0.80 -0.45 1.15 0.25 1.95 0.45 0.50 0.85 1.15 0.85 1.40 0 0.40 1.70 1.60 4.10 2.95 0.50 0.25 0.90 0.65 0.90 0.85 0 0.70 3.10 3.90 3.80 3.90 0.55 0 0.70 0.95 0.70 4.25 l0 4.25 -1.35 -0.05 c-0.80 -0.05 -2.30 -0.25 -3.40 -0.50z"/>
  <path d="M83.15 117 c-0.15 -0.55 -0.65 -1 -1.10 -1.05 -1.95 -0.10 -8.05 0.10 -10.70 0.35 l-2.85 0.30 0 -3.75 c0 -2.40 0.20 -3.95 0.60 -4.15 0.30 -0.20 0.70 -0.10 0.80 0.20 0.20 0.65 2.55 0.80 3.40 0.20 0.25 -0.20 0.75 -1.15 1 -2.10 0.65 -2.30 2.40 -2.60 4.60 -0.75 0.80 0.70 2.20 1.40 3.05 1.55 1.30 0.30 1.55 0.15 1.85 -1 0.15 -0.70 0.15 -2.15 -0.05 -3.20 -0.50 -2.75 -0.75 -9.45 -0.40 -12.70 0.25 -2.55 0.40 -2.90 1.75 -3.45 1.30 -0.50 1.75 -0.50 3.15 0.25 1.35 0.75 2.10 0.80 3.60 0.45 2.15 -0.50 7.45 0.05 8.50 0.95 0.40 0.30 0.60 0.85 0.45 1.20 -0.15 0.40 0.20 0.60 1.05 0.55 1.10 -0.10 1.40 0.20 1.80 1.55 0.50 1.70 1.25 2 2.25 1 0.45 -0.45 0.60 -0.45 0.60 0.15 0 0.80 0.85 6.85 1.30 9.40 l0.25 1.70 -2.50 -0.35 c-2 -0.25 -2.80 -0.15 -4.15 0.70 -1.75 1.05 -4.65 1.35 -5.15 0.50 -0.15 -0.25 -0.80 -0.50 -1.35 -0.50 -0.60 0 -1.80 -0.25 -2.65 -0.55 -1.10 -0.40 -2.05 -0.45 -3.05 -0.10 -1.20 0.40 -1.50 0.85 -1.85 2.70 -0.85 4.60 -0.95 6.45 -0.40 6.45 0.60 0 0.75 2.40 0.25 3.70 -0.25 0.65 -0.45 0.70 -1 0.25 -0.50 -0.40 -0.70 -0.40 -0.70 0 0 1 -2.10 0.60 -2.35 -0.45z"/>
  <path d="M168.40 61.15 c-1.35 -3.10 -1.80 -6.60 -0.85 -7.20 1.10 -0.70 1.95 -0.50 1.95 0.45 0 0.45 0.80 2.30 1.75 4.05 1.80 3.35 1.85 4.05 0.20 4.05 -0.50 0 -0.95 0.25 -0.95 0.50 0 1.30 -1.15 0.25 -2.10 -1.85z"/>
  <path d="M171.85 56.15 c-1.60 -5.15 -1.65 -5.75 -0.45 -5.30 1.55 0.55 5.10 3.30 5.10 3.95 0 0.30 -0.75 1.05 -1.65 1.60 -1.45 0.85 -1.65 1.20 -1.45 2.55 0.35 2.60 -0.10 1.75 -1.55 -2.80z"/>
  <path d="M178.35 48 c-4.30 -2.65 -6.10 -5.05 -5.55 -7.25 0.40 -1.60 1.60 -1.60 8.85 -0.20 5.25 1.05 5.35 1.10 5.35 2.45 0 1.95 -1.35 4.90 -2.85 6.30 -0.70 0.65 -1.45 1.20 -1.60 1.20 -0.15 -0.05 -2.05 -1.15 -4.20 -2.50z"/>
 </g>
 <g fill="#e5bf00">
  <path d="M201.15 176.35 c0.35 -0.95 -0.60 -2.45 -2.75 -4.30 -1.05 -0.90 -1.90 -1.95 -1.90 -2.30 0 -0.45 -0.85 -0.80 -2.25 -1 -1.20 -0.20 -2.50 -0.65 -2.80 -1.05 -0.30 -0.40 -0.85 -0.70 -1.15 -0.70 -0.85 0 -2.45 -1.95 -3.15 -3.90 -0.30 -0.85 -0.50 -3 -0.45 -4.70 0.10 -1.75 0.15 -4.45 0.20 -6 l0.10 -2.90 2.20 0 c1.25 0 2.40 0.25 2.55 0.50 0.15 0.30 0.90 0.50 1.65 0.50 0.75 0 1.90 0.60 2.70 1.35 l1.40 1.35 1.15 -1.10 c0.65 -0.60 1.40 -1.10 1.70 -1.10 0.60 0 0.95 -3.70 1.25 -12 0.15 -3.55 0.30 -4.25 1.05 -4.40 0.50 -0.10 0.85 0.15 0.85 0.60 0 1 4.25 2.95 6.75 3.10 1.10 0.05 2.95 0.30 4.10 0.55 1.45 0.35 2.25 0.35 2.60 0 0.40 -0.40 0.55 1.10 0.55 4.95 0 7.20 -1.15 11.80 -4.75 19.05 -2.25 4.45 -3.60 6.40 -6.80 9.85 -3.75 3.95 -5.45 5.25 -4.80 3.65z"/>
  <path d="M88.35 143.60 c-0.50 -0.50 -0.85 -1.70 -0.85 -2.70 0 -1.35 0.30 -1.90 1.25 -2.40 0.70 -0.35 1.35 -0.55 1.45 -0.45 0.20 0.25 2.30 5.90 2.30 6.20 0 0.70 -3.45 0.15 -4.15 -0.65z"/>
  <path d="M83.65 129.15 c-0.65 -0.40 -1.15 -1.30 -1.15 -1.95 0 -1.60 -1.60 -2.35 -5.45 -2.40 -2.25 -0.05 -3.90 0.20 -5.15 0.80 -1 0.50 -2.05 0.90 -2.30 0.90 -0.80 0 -1.10 -2 -1.10 -7.35 l0 -5.15 1.25 0.60 c1 0.45 1.65 0.40 3.20 -0.35 1.60 -0.70 2.30 -0.75 3.50 -0.35 1.10 0.40 1.95 0.35 3.05 -0.05 1.15 -0.45 1.75 -0.45 2.50 0.05 0.55 0.30 1.30 0.60 1.70 0.60 0.35 0 0.80 0.50 1 1.15 0.25 0.90 0.40 0.95 0.75 0.35 0.30 -0.40 0.30 -0.85 0.10 -1 -0.80 -0.50 -1.10 -3.35 -0.50 -5.55 0.30 -1.20 0.60 -3 0.65 -3.95 0.05 -1.45 0.35 -1.85 1.80 -2.60 1.95 -0.90 4.65 -0.95 6.35 0 0.60 0.35 1.45 0.45 1.90 0.30 0.45 -0.20 1.20 0.05 1.70 0.50 0.85 0.75 1 0.75 2.75 -0.45 2.10 -1.45 1.95 -1.40 5.20 -0.70 2.35 0.50 2.50 0.60 2.80 2.35 0.70 4.55 4.85 14.55 8.35 20.25 l1.55 2.50 -3.15 -0.35 c-4.15 -0.40 -5.95 -1.95 -5.95 -5.15 l0 -2.20 -1.65 1.25 c-1.95 1.50 -4.30 1.70 -6.15 0.50 -1 -0.70 -2 -0.80 -5.35 -0.50 -2.25 0.15 -4.90 0.45 -5.85 0.60 -1.70 0.25 -1.80 0.20 -2.90 -2.35 -0.60 -1.45 -1.25 -2.50 -1.40 -2.30 -0.30 0.25 1.50 10.55 2.10 12.10 0.40 1.05 -2.65 0.95 -4.15 -0.10z"/>
  <path d="M205.60 84.10 c-0.80 -2.60 -0.80 -2.60 0.65 -2.60 1.05 0 1.25 0.25 1.35 1.50 0 0.85 0.05 1.80 0.10 2.10 0.05 0.35 -0.30 0.70 -0.75 0.80 -0.55 0.10 -0.95 -0.50 -1.35 -1.80z"/>
  <path d="M175.55 69.45 c-4.80 -3.20 -8.25 -8.45 -5.60 -8.45 0.55 0 1.15 -0.25 1.30 -0.55 0.25 -0.35 0.70 -0.20 1.35 0.40 0.95 0.85 0.95 0.85 0.60 -0.60 -0.20 -0.85 -0.55 -1.90 -0.75 -2.35 -0.80 -1.50 -0.45 -2.30 1.40 -3.40 l1.85 -1.10 1.10 1.35 c1.40 1.80 2.05 4.15 2.45 8.75 0.15 2.05 0.40 4.70 0.55 5.90 0.35 2.70 -0.25 2.75 -4.25 0.05z"/>
  <path d="M151.85 56.60 c-1.85 -2.05 -0.05 -5.50 2.55 -4.85 1.40 0.30 2.60 1.50 2.60 2.55 0 1.10 -2.10 3.20 -3.20 3.20 -0.65 0 -1.50 -0.40 -1.95 -0.90z"/>
  <path d="M188.90 56.15 c-0.85 -0.95 -5.55 -4.85 -7.85 -6.50 -0.10 -0.10 0.60 -0.90 1.55 -1.85 1.05 -1 2.05 -2.65 2.45 -4 0.35 -1.25 0.80 -2.30 1 -2.30 0.20 0 2.45 0.65 5 1.45 9.85 3.10 10.80 3.70 8.10 5.40 -0.80 0.45 -1.90 1.35 -2.55 2 -0.65 0.65 -1.60 1.15 -2.10 1.15 -0.70 0 -1 0.35 -1 1.20 0 0.70 -0.70 1.95 -1.70 2.95 l-1.70 1.75 -1.20 -1.25z"/>
 </g>
 <g fill="#fad100">
  <path d="M143.60 187.50 c-16.10 -9.45 -31.65 -25.25 -44.30 -45 -3.05 -4.80 -11.30 -20.35 -11.30 -21.35 0 -0.80 2.85 -1.50 6.75 -1.60 2.15 -0.05 4.30 -0.30 4.75 -0.55 0.60 -0.30 1.35 -0.10 2.70 0.80 l1.85 1.25 2.05 -1.50 c1.15 -0.85 2.50 -1.55 3 -1.55 1.05 0 2.05 2.20 1.75 3.85 -0.30 1.50 1.85 3.45 4.25 3.85 1.65 0.30 2.15 0.80 4.20 3.95 1.30 2 5.85 8.80 10.15 15.10 11.60 16.95 15.45 23.95 17.80 31.95 1.55 5.45 2.30 13.30 1.20 13.25 -0.40 0 -2.55 -1.10 -4.85 -2.45z"/>
  <path d="M120 187.15 c-0.40 -0.15 -3.25 -1.25 -6.35 -2.45 -21.15 -8.35 -36 -24.15 -42 -44.65 -2.05 -7.10 -3.40 -16.60 -2.25 -15.85 0.25 0.15 1 -0.05 1.75 -0.45 0.90 -0.45 3 -0.70 6 -0.70 5.10 0.05 7.05 0.85 7.10 3 0 0.70 0.55 1.40 1.70 2 1.55 0.85 1.85 1.40 3.15 5.55 1.60 5.50 1.70 6.20 0.55 6.85 -0.75 0.40 -0.75 0.55 -0.15 1.30 0.40 0.45 1.20 1.05 1.80 1.25 0.65 0.25 1.35 1.20 1.70 2.35 0.35 1.05 1.85 4.40 3.30 7.50 5.70 12.15 14.15 22.85 23.45 29.65 1.65 1.20 3 2.20 3.05 2.25 0.05 0 0.20 0.60 0.40 1.40 0.30 1.25 0.20 1.35 -1.05 1.30 -0.80 0 -1.75 -0.15 -2.15 -0.30z"/>
  <path d="M194.80 153.70 c-0.80 -0.95 -1.70 -1.65 -2.05 -1.50 -0.35 0.10 -1.25 -0.10 -2.05 -0.50 -0.80 -0.45 -1.95 -0.65 -2.55 -0.55 l-1.10 0.20 -0.15 -11.80 c-0.15 -11.30 -0.20 -11.90 -1.35 -14.25 -1 -2 -1.65 -2.60 -3.75 -3.55 -1.40 -0.65 -4.15 -1.30 -6.15 -1.50 -2.65 -0.25 -3.65 -0.55 -3.65 -1.05 0 -0.60 3.15 -0.70 19.90 -0.70 l19.85 0.05 -2 1.05 c-2.40 1.25 -4.50 3.10 -5.80 5.25 -0.90 1.45 -1 2.45 -0.95 10.75 0.05 5.05 -0.05 10.05 -0.20 11.15 -0.10 1.10 -0.25 2.80 -0.25 3.80 -0.05 1.25 -0.30 1.95 -0.90 2.15 -0.50 0.15 -1.65 0.85 -2.60 1.55 -0.95 0.70 -1.95 1.25 -2.25 1.20 -0.30 0 -1.20 -0.80 -2 -1.75z"/>
  <path d="M177.60 149.20 c-2.15 -1.50 -1 -5.20 1.65 -5.20 2.65 0 3.80 3.70 1.65 5.20 -0.60 0.45 -1.35 0.80 -1.65 0.80 -0.30 0 -1.05 -0.35 -1.65 -0.80z"/>
  <path d="M207.10 84.15 c-0.05 -0.75 -0.45 -1.15 -1 -1.15 -0.65 0 -1.15 -0.75 -1.75 -2.65 -2.10 -6.65 -7.40 -15.55 -12.80 -21.45 -1.40 -1.55 -2.55 -2.95 -2.55 -3.15 0 -0.20 0.70 -1.05 1.50 -1.85 0.90 -0.80 1.50 -1.90 1.50 -2.65 0 -0.90 0.25 -1.25 1 -1.25 0.50 0 1.45 -0.55 2.10 -1.20 0.65 -0.65 1.85 -1.55 2.75 -2.05 1.55 -0.90 1.60 -0.90 4.80 0.45 5.40 2.25 4.90 0.15 4.75 20.30 -0.10 9.75 -0.20 17.25 -0.30 16.65z"/>
 </g>
<g opacity="0.5" transform="rotate(-45, 150.0, 150.0)">
  <text x="50%" y="50%" font-size="20" text-anchor="middle" fill="lightgray" dominant-baseline="middle">
    generated by vectorizer.io
  </text>
</g>
</svg>