<?xml version="1.0" encoding="utf-8"?>
<!DOCTYPE svg PUBLIC "-//W3C//DTD SVG 1.0//EN" "http://www.w3.org/TR/2001/REC-SVG-20010904/DTD/svg10.dtd">
<svg version="1.0" xmlns="http://www.w3.org/2000/svg" width="300px" height="300px" viewBox="0 0 300 300" preserveAspectRatio="xMidYMid meet">
 <g fill="#020403">
  <path d="M0 150 l0 -150 150 0 150 0 0 150 0 150 -150 0 -150 0 0 -150z m181.75 109.70 c3.30 -0.85 6.40 -2.50 9 -4.80 l1.75 -1.50 0 -6.45 0 -6.45 -7 0 -7 0 0 1.50 0 1.45 5.40 0.15 5.35 0.15 0.15 4.25 c0.05 2.65 -0.15 4.70 -0.50 5.50 -1.05 2 -4.65 3.50 -9.45 3.85 -7.40 0.50 -12.35 -1.75 -15.20 -6.90 -1.30 -2.40 -1.50 -3.25 -1.65 -8.05 -0.30 -8.35 1.60 -12.45 7.10 -15.15 5 -2.45 13.55 -2.20 17.55 0.55 1.55 1.05 1.80 1.10 2.10 0.40 0.55 -1.50 -4.35 -4.35 -9.15 -5.30 -7.60 -1.50 -17.25 4.15 -20.20 11.95 -1.55 4 -1.55 9.35 -0.05 13.25 2.05 5.35 7.45 10.10 13.15 11.60 3.50 0.95 5.10 0.95 8.65 0z m-55.40 -6.85 c1.45 -3.05 5.20 -11.05 8.35 -17.70 l5.70 -12.15 -1.40 0 c-0.75 0 -1.60 0.30 -1.85 0.65 -0.60 0.75 -10.25 21.85 -11.20 24.50 -0.60 1.70 -0.80 1.85 -2.45 1.85 -1.65 0 -1.90 -0.20 -2.60 -1.85 -0.40 -1.05 -3.05 -7 -5.90 -13.25 -4.95 -10.85 -5.20 -11.30 -6.70 -11.55 -0.85 -0.15 -1.60 -0.20 -1.65 -0.15 -0.25 0.20 16.50 35.30 16.80 35.30 0.15 0 1.50 -2.55 2.90 -5.65z m47.90 -65.65 c7.80 -1.60 17.95 -5.80 23.25 -9.60 6.65 -4.80 13.05 -13.10 15.85 -20.55 2.50 -6.65 2.75 -8.35 3.10 -20.55 0.35 -13.15 0.55 -13.95 4 -15.95 l1.80 -1.05 -20 0.05 -20 0 1.80 0.95 c1.20 0.65 2.20 1.70 2.90 3.15 1 2.05 1.05 2.90 1.05 18.65 0 14.60 -0.10 16.90 -1 20.45 -1.60 6.65 -2.70 8.95 -4.20 9.15 -1.15 0.15 -1.30 0.40 -1.30 2.05 0 3.70 -3.60 7.70 -11 12.30 -4.20 2.60 -4.30 2.55 3.75 0.95z m-27.05 -2.30 c-0.65 -4.75 -2.45 -10.10 -5.15 -15.70 -3.55 -7.35 -6.15 -11.55 -15.20 -24.65 -11.85 -17.05 -15.50 -23.50 -18.50 -32.60 -2.70 -8.10 -3.50 -14.40 -3.25 -24.85 0.25 -9.85 1 -13.85 3.70 -20.25 3.25 -7.75 11.55 -17 20.40 -22.80 2.15 -1.40 3.65 -2.55 3.35 -2.55 -1.90 0 -13.20 3.30 -18.05 5.25 -13.55 5.45 -25.10 14.70 -32.75 26.10 -6.10 9.15 -9.45 18.55 -11.25 31.80 -1.25 8.80 -1.25 11.40 -0.05 20.50 3.30 24.40 14.65 41.90 34.70 53.35 3.75 2.10 12.20 6 13.15 6 0.15 0 -1.05 -1.10 -2.65 -2.45 -10.20 -8.60 -18.20 -20.15 -23.90 -34.55 -3.90 -9.80 -6.95 -21.50 -7.60 -28.80 l-0.30 -3.70 1.70 0 1.70 0 3.75 7.90 c10.85 22.80 25.70 42.05 42.60 55.25 4.30 3.35 12.65 8.85 13.50 8.85 0.20 0 0.30 -0.95 0.10 -2.10z m23.50 -21.25 c-0.75 -1.05 -1.90 -2.60 -2.55 -3.45 -0.70 -0.95 -1.15 -2.25 -1.15 -3.35 0 -1.75 0.10 -1.85 1.65 -1.85 0.90 0 1.95 0.30 2.35 0.65 0.40 0.30 0.20 -0.05 -0.50 -0.80 -1.10 -1.30 -5.85 -3.90 -8.30 -4.60 -1.05 -0.25 -1.05 -0.20 0.40 3.80 1.80 5.20 3.55 7.80 6.60 9.85 1.30 0.85 2.55 1.60 2.65 1.60 0.15 0 -0.35 -0.85 -1.15 -1.85z m9.05 -17.15 c-0.25 -0.40 -0.55 -0.40 -0.85 -0.10 -0.30 0.30 -0.35 0.80 -0.15 1.10 0.25 0.40 0.55 0.40 0.85 0.10 0.30 -0.30 0.35 -0.80 0.15 -1.10z m26.35 -85.75 l-0.35 -9.95 -4.75 -2.10 c-9.10 -4 -20.30 -7.05 -29 -7.95 -1.80 -0.15 -3.65 -0.45 -4.15 -0.60 -0.80 -0.20 -0.85 -0.10 -0.25 0.80 0.45 0.75 1.15 1.05 2.40 1.05 3.30 0 13.35 6.10 19.55 11.85 6.40 5.95 12.40 14.75 15.35 22.50 l1.35 3.55 0.10 -4.55 c0.10 -2.55 0 -9.10 -0.25 -14.60z m-28.35 4.40 c-0.40 -4.65 -1.15 -7.25 -2.50 -8.95 -1.50 -1.85 -2.05 -1.35 -1.05 1.05 0.45 1.05 0.80 2.75 0.80 3.80 0 1.85 -0.10 1.95 -1.50 1.95 -1.10 0 -1.40 0.20 -1.20 0.75 0.25 0.65 5 4.75 5.55 4.75 0.10 0 0.05 -1.50 -0.10 -3.35z m-22.75 -10.65 c0 -0.70 -1.40 -0.95 -1.65 -0.25 -0.15 0.35 -0.15 0.75 0 0.90 0.35 0.35 1.65 -0.15 1.65 -0.65z"/>
 </g>
 <g fill="#2c7660">
  <path d="M192 247.85 c0 -8.50 0.05 -8.85 1 -8.85 0.95 0 1 0.35 1 7.90 0 7.30 -0.10 8 -1 8.85 -1 0.90 -1 0.85 -1 -7.90z"/>
  <path d="M154.05 190.75 c0.15 -0.10 2.15 -0.80 4.50 -1.45 3.10 -0.90 4.30 -1.05 4.55 -0.65 0.65 1.05 0.45 1.75 -0.70 2.05 -1.35 0.35 -8.65 0.40 -8.35 0.05z"/>
  <path d="M68.30 121.40 c-0.40 -1.50 -0.40 -11.80 0 -13.25 0.20 -0.65 0.65 -1.15 1 -1.15 0.55 0 0.70 1.50 0.70 7.75 0 6.25 -0.15 7.75 -0.70 7.75 -0.35 0 -0.80 -0.50 -1 -1.10z"/>
  <path d="M81.05 83.55 c-0.95 -0.70 -1.55 -0.85 -2.45 -0.50 -0.65 0.25 -1.95 0.45 -2.90 0.45 -1.60 0 -1.75 -0.10 -1.40 -1.10 2.25 -7.15 13.40 -21.75 20.10 -26.35 l1.60 -1.10 0 1.65 c0 1 -0.80 3.05 -2 5.15 -3 5.25 -5 9.75 -5.50 12.25 -0.25 1.25 -0.75 3.05 -1.15 4 -0.40 0.95 -0.90 2.80 -1.10 4.15 -0.35 2.30 -0.40 2.35 -2.20 2.35 -1 0 -2.35 -0.45 -3 -0.95z"/>
  <path d="M206 72.25 c0 -8.40 0.15 -10.25 0.70 -10.25 1.10 0 1.30 1.70 1.30 11.40 0 8.75 -0.05 9.10 -1 9.10 -0.95 0 -1 -0.35 -1 -10.25z"/>
  <path d="M101.25 52.70 c-1 -0.75 -1 -0.75 0.25 -1.70 0.70 -0.55 2.80 -1.75 4.70 -2.75 3.25 -1.65 3.50 -1.70 4.35 -0.95 0.55 0.50 0.95 1.55 0.95 2.55 0 1.60 -0.10 1.65 -1.90 1.65 -1.30 0 -2.25 0.35 -2.85 1 -1.10 1.20 -4.05 1.30 -5.50 0.20z"/>
  <path d="M111.65 46.65 c-0.35 -0.90 -0.60 -0.75 4.15 -2.55 4.90 -1.85 13.15 -3.85 19.80 -4.85 8.05 -1.25 8.30 -1.05 2.65 1.90 -2.75 1.45 -6.30 3.50 -7.90 4.60 -2.60 1.75 -3 1.85 -4.10 1.25 -0.90 -0.50 -1.40 -0.50 -1.90 -0.10 -1.05 0.85 -12.35 0.65 -12.70 -0.25z"/>
  <path d="M158.15 39.65 c-0.65 -0.10 -1.15 -0.55 -1.15 -0.95 0 -0.55 0.85 -0.70 3.90 -0.70 4.50 0 6.10 0.35 6.10 1.30 0 0.55 -0.90 0.70 -3.85 0.65 -2.15 -0.05 -4.40 -0.20 -5 -0.30z"/>
 </g>
 <g fill="#32886e">
  <path d="M187.80 245.75 c-0.20 -0.60 -1.30 -0.75 -5.55 -0.75 l-5.25 0 0 -1.75 c0 -1.40 0.20 -1.75 1 -1.75 0.55 0 1 0.35 1 0.75 0 0.60 0.90 0.75 5 0.75 l5 0 0 1.75 c0 1.80 -0.65 2.35 -1.20 1z"/>
  <path d="M72.35 95.15 c-1.85 -0.20 -1.90 -0.25 -1.60 -1.80 0.20 -0.90 1.05 -3.70 1.90 -6.30 l1.60 -4.70 2.15 -0.65 c1.15 -0.35 2.45 -0.85 2.85 -1.20 0.60 -0.50 1.10 -0.30 2.60 0.95 2.20 1.80 2.65 1.90 2.65 0.50 0 -0.60 0.20 -0.90 0.55 -0.65 0.60 0.35 0.35 9.20 -0.35 11.50 -0.60 2.20 -5.35 3.05 -12.35 2.35z"/>
  <path d="M104.70 64.45 c-0.85 -0.95 -1.40 -1 -7 -0.85 -3.35 0.10 -6.25 0 -6.40 -0.15 -0.20 -0.15 0.50 -1.85 1.50 -3.75 1.85 -3.50 4.60 -6.45 7.55 -8.05 1.40 -0.75 1.80 -0.80 2.70 -0.25 0.95 0.60 1.25 0.50 2.70 -0.90 1.45 -1.40 1.80 -1.50 2.75 -1 1.30 0.70 1.80 0.40 0.75 -0.50 -1.20 -1 -0.90 -1.80 1.15 -2.70 1.50 -0.65 2.85 -0.80 6.95 -0.60 3 0.15 5.25 0.05 5.40 -0.20 0.20 -0.30 0.85 -0.50 1.50 -0.50 0.65 0 1.25 -0.30 1.35 -0.70 0.10 -0.55 0.60 -0.30 1.85 0.80 1.50 1.35 1.60 1.60 0.85 2 -2.20 1.25 -10.65 9.55 -13.10 12.80 -2.85 3.95 -5.25 5.60 -8 5.60 -0.95 0 -1.90 -0.40 -2.50 -1.05z"/>
  <path d="M158.75 39.85 c-2.20 -0.50 -4.55 -1.05 -5.20 -1.20 -0.65 -0.10 -1.05 -0.35 -0.90 -0.50 0.15 -0.15 2.80 -0.10 5.80 0.10 5.40 0.35 5.55 0.40 5.55 1.55 0 1.40 0.05 1.40 -5.25 0.05z"/>
 </g>
 <g fill="#389578">
  <path d="M74.80 102.10 c-0.15 -0.20 -1.40 -0.70 -2.80 -1.10 l-2.60 -0.70 0.30 -2.35 c0.50 -3.65 1.30 -5.60 2.05 -4.95 0.30 0.25 2.10 0.60 3.90 0.70 4.40 0.30 7.15 -0.75 7.60 -2.75 0.20 -0.80 0.65 -1.45 1.05 -1.45 0.55 0 0.70 0.80 0.65 3.40 0 5.10 -0.55 7.30 -1.70 7.55 -0.55 0.10 -1.60 0.60 -2.35 1.10 -1.35 0.95 -5.60 1.35 -6.10 0.55z"/>
  <path d="M103.90 78 c-1.30 -1.30 -2.45 -1.95 -3.75 -2.15 -1.05 -0.15 -3.60 -0.50 -5.65 -0.80 -2.05 -0.30 -4.70 -0.40 -5.85 -0.25 l-2.10 0.30 0.30 -1.90 c0.35 -2.35 2.75 -8.25 4.15 -10.20 0.85 -1.20 1.25 -1.40 2.15 -1.05 0.75 0.30 1.90 0.20 3.30 -0.30 1.55 -0.50 2.30 -0.60 2.70 -0.20 0.75 0.75 3.50 0.70 4.25 -0.05 0.45 -0.45 0.95 -0.25 2.25 1 l1.70 1.65 2.35 -1.35 c1.75 -1 2.50 -1.20 2.95 -0.75 0.40 0.40 0.35 0.95 -0.30 2.05 -1.65 2.75 -3.75 8.40 -4.60 12.20 -0.50 2.15 -1.10 3.75 -1.45 3.75 -0.30 -0.05 -1.40 -0.90 -2.40 -1.95z"/>
  <path d="M166.50 44.05 c0 -1.60 -0.65 -2.30 -2.65 -2.80 -1.70 -0.45 -1.75 -1.40 -0.10 -2.15 2 -0.90 4.70 -0.75 5.10 0.30 0.20 0.45 0.75 1.15 1.25 1.50 0.50 0.35 0.90 1.20 0.90 1.85 0 0.90 -0.20 1.10 -1.05 0.90 -0.75 -0.20 -1.10 0 -1.30 0.80 -0.15 0.60 -0.65 1.05 -1.20 1.05 -0.70 0 -0.95 -0.35 -0.95 -1.45z"/>
 </g>
 <g fill="#5c9567">
  <path d="M177 240.75 l0 -1.75 8.25 0 c7.90 0 8.25 0.05 8.25 1 0 0.95 -0.35 1 -7.25 1 -6.10 0 -7.25 0.10 -7.25 0.75 0 0.40 -0.45 0.75 -1 0.75 -0.80 0 -1 -0.35 -1 -1.75z"/>
  <path d="M160.65 189.45 c0.75 -0.55 2.90 -1.80 4.85 -2.75 1.90 -0.95 5.15 -2.95 7.15 -4.40 3.45 -2.45 3.80 -2.60 4.90 -2 0.65 0.35 2.25 0.65 3.50 0.70 2.10 0 2.45 0.15 3.65 1.90 0.70 1.05 1.30 2.15 1.30 2.40 0 1.40 -17.40 5.20 -23.60 5.20 l-3.05 0 1.30 -1.05z"/>
  <path d="M217.50 123.10 l-0.75 -2.35 -3.25 -0.30 c-1.80 -0.20 -11.85 -0.35 -22.40 -0.40 -17.95 -0.05 -19.15 -0.10 -19 -0.90 0.15 -0.85 2.05 -0.90 30.05 -1.05 l29.90 -0.10 -0.15 1.10 c-0.15 1.05 -0.50 1.15 -3.90 1.40 -4.15 0.30 -7.45 1.80 -8.55 3.80 -0.35 0.65 -0.75 1.20 -0.90 1.20 -0.15 0 -0.65 -1.05 -1.05 -2.40z"/>
 </g>
 <g fill="#3fa281">
  <path d="M79.75 109 c-0.15 -0.25 -1.60 -0.50 -3.15 -0.50 -1.55 0 -4.05 -0.30 -5.50 -0.60 l-2.70 -0.65 0.30 -2.25 c0.80 -5.65 0.85 -5.90 1.90 -6.15 0.60 -0.15 1.70 0.05 2.50 0.45 0.75 0.40 1.40 0.60 1.40 0.40 0 -0.15 0.55 0.05 1.25 0.50 1.55 1.05 2.05 1 3.65 -0.15 0.75 -0.50 1.80 -1 2.35 -1.10 0.70 -0.15 1.05 -0.70 1.25 -1.95 0.15 -1.05 0.55 -1.80 1.05 -1.90 0.65 -0.10 0.85 0.60 1.15 4.10 0.20 2.35 0.20 5.65 0 7.30 l-0.35 3 -2.40 0 c-1.30 0 -2.55 -0.20 -2.70 -0.50z"/>
  <path d="M102.10 92.30 c0.15 -2 0.05 -2.15 -0.65 -1.50 -0.95 0.85 -4 0.95 -4.85 0.10 -0.40 -0.40 -2.60 -0.55 -6.90 -0.45 l-6.30 0.10 0.35 -3.40 c0.50 -4.80 1.60 -9.80 2.60 -12 0.85 -1.75 1.10 -1.90 3.55 -2.25 1.60 -0.25 3.05 -0.20 3.60 0.10 0.50 0.25 1.55 0.35 2.35 0.20 0.80 -0.15 2 0.05 2.85 0.50 1.05 0.55 1.75 0.60 2.40 0.25 0.95 -0.50 1.05 -0.45 4.75 2.75 1.05 0.95 1.10 1.20 0.80 9 -0.20 5 -0.50 8.20 -0.85 8.40 -0.30 0.20 -1.30 0.40 -2.25 0.40 l-1.65 0 0.20 -2.20z"/>
  <path d="M171.30 54.60 c-1.30 -4.75 -1.15 -4.95 2.15 -2.60 l2.05 1.50 -1.10 2 c-0.65 1.10 -1.40 2 -1.70 2 -0.30 0 -0.95 -1.30 -1.40 -2.90z"/>
  <path d="M166.50 47.90 c0 -6.45 1.80 -6.80 2.10 -0.40 0.15 3.55 0.10 3.75 -1 3.90 -1.05 0.15 -1.10 0 -1.10 -3.50z"/>
  <path d="M168.95 42.75 c-0.95 -0.70 -1.70 -1.55 -1.70 -1.90 0 -0.60 -0.45 -0.60 -2.95 -0.05 -1.45 0.35 -2.30 -0.30 -2.30 -1.75 0 -0.60 0.95 -0.65 5.40 -0.40 6.20 0.35 7.10 0.60 7.10 1.85 0 0.85 -2.60 3.50 -3.45 3.50 -0.20 0 -1.15 -0.55 -2.10 -1.25z"/>
 </g>
 <g fill="#62a471">
  <path d="M183.05 184.25 c-1.25 -1.85 -2 -2.10 -3.60 -1.25 -0.75 0.40 -1.30 0.30 -2.55 -0.60 -0.90 -0.65 -1.75 -1.20 -1.85 -1.25 -0.10 -0.05 0.75 -1.15 1.85 -2.50 3 -3.60 3.20 -4.20 2.40 -6.80 -0.65 -2.15 -0.65 -2.30 0.40 -2.55 0.65 -0.15 1.25 0 1.60 0.45 0.80 1.10 1.20 0.95 1.75 -0.75 0.50 -1.35 1.95 -2.15 1.95 -1.10 0 0.25 0.55 0.70 1.25 1 1 0.50 1.25 0.95 1.25 2.55 0 2.15 0.50 2.55 3.30 2.55 2.45 0 6.75 1.50 7.10 2.45 0.15 0.45 0.65 1.05 1.05 1.40 0.70 0.50 0.70 0.65 -0.20 1.35 -2.80 2.20 -12.30 6.80 -14 6.80 -0.25 0 -1.05 -0.80 -1.70 -1.75z"/>
  <path d="M172.25 167.30 c-2.50 -0.60 -5.75 -2.20 -5.75 -2.85 0 -0.20 0.35 -0.45 0.75 -0.65 0.40 -0.15 0.75 -0.60 0.75 -1.05 0 -0.55 0.55 -0.75 2.15 -0.75 1.95 0 2.20 0.15 3.75 2.50 1.55 2.45 1.95 3.55 1.25 3.45 -0.25 0 -1.55 -0.30 -2.90 -0.65z"/>
  <path d="M186.40 141.25 l-0.15 -14.75 1.15 0 1.10 0 0 14.75 c0 14.35 -0.05 14.75 -1 14.75 -0.95 0 -1 -0.45 -1.10 -14.75z"/>
  <path d="M215 131.15 c-0.70 -0.10 -2.05 -0.40 -3.05 -0.70 -1 -0.30 -3.60 -0.60 -5.75 -0.65 l-3.95 -0.05 -0.15 -2.40 c-0.20 -3.05 1.25 -5.70 4.30 -7.90 2.10 -1.50 2.35 -1.55 4.55 -1.10 1.25 0.30 3 0.45 3.85 0.30 3.55 -0.55 5.45 2.75 4 7 -0.45 1.30 -0.80 3.15 -0.80 4.10 0 1.85 -0.05 1.85 -3 1.40z"/>
 </g>
 <g fill="#46ac88">
  <path d="M68.50 111.75 l0 -6.25 1.25 0.25 c0.70 0.15 1.85 0.40 2.65 0.55 0.75 0.15 2.90 0.35 4.75 0.45 1.90 0.05 3.70 0.40 4 0.70 0.85 0.85 2.50 0.70 2.15 -0.20 -0.20 -0.50 0.05 -0.75 0.75 -0.75 1.15 0 1.95 1.75 1.95 4.25 0 2.20 -1.15 2.85 -4.65 2.70 -3.45 -0.15 -6.85 0.45 -6.85 1.30 0 1.30 -2.60 3.25 -4.30 3.25 l-1.70 0 0 -6.25z"/>
  <path d="M102.75 103.95 c-0.30 -2.65 -0.25 -3.15 0.70 -4.15 0.60 -0.60 0.90 -1.30 0.70 -1.45 -0.55 -0.60 -2.85 -0.35 -3.85 0.40 -0.55 0.40 -1.85 0.75 -2.90 0.75 -1.95 0 -3.90 1.20 -3.90 2.35 0 0.90 -3.50 0.80 -4.70 -0.10 -1.30 -1 -3.30 -0.95 -3.30 0 0 1.05 -1.40 0.95 -1.70 -0.10 -0.30 -1.10 -0.45 -4.80 -0.35 -9.40 l0.05 -3.50 4.55 0.15 c2.50 0.10 4.90 0 5.35 -0.20 1.80 -0.75 2.85 -0.70 4.25 0.35 1.30 0.95 1.50 0.95 2.25 0.30 0.45 -0.45 1.45 -0.95 2.20 -1.10 1.15 -0.30 1.45 -0.15 2 1 0.45 1.05 0.45 1.55 0 2.30 -0.80 1.30 -0.80 1.30 0.90 1.05 1.40 -0.20 1.50 -0.10 1.50 1.30 0 1.30 1 7.95 1.80 11.75 0.30 1.35 0.25 1.35 -2.45 1.35 l-2.75 0 -0.35 -3.05z"/>
  <path d="M168.80 62.15 c-1.25 -2.50 -2.30 -6.75 -2.30 -9.45 0 -2.15 0.20 -2.75 1 -3.20 1.05 -0.55 1.10 -0.55 1.75 3.75 0.20 1.10 1 3.45 1.85 5.20 l1.50 3.20 -1.15 0.90 c-1.60 1.20 -1.80 1.20 -2.65 -0.40z"/>
  <path d="M172.70 58.75 c-1.05 -2.60 -0.90 -3.45 1.10 -6.15 0.05 -0.10 0.70 0.20 1.35 0.65 1.40 0.90 2.50 2.40 3.05 4.15 0.35 0.95 0.20 1.10 -1.15 1.10 -1 0 -1.75 0.35 -2.15 1 -0.90 1.40 -1.35 1.25 -2.20 -0.75z"/>
  <path d="M179.50 48.70 c-0.95 -0.65 -3.55 -2.15 -5.75 -3.30 -2.20 -1.10 -4.10 -2.10 -4.20 -2.20 -0.10 -0.05 0.75 -1 1.85 -2.05 2.15 -2.05 2.45 -2.10 7.50 -1.10 2.50 0.50 2.65 0.60 2.40 1.75 -0.30 1.05 -0.10 1.30 1.20 1.75 1.25 0.45 1.50 0.80 1.50 2.20 0 2.40 -0.80 4.25 -1.85 4.25 -0.50 -0.05 -1.70 -0.60 -2.65 -1.30z"/>
 </g>
 <g fill="#4fb890">
  <path d="M83.75 122.50 c-0.15 -0.25 -1.50 -0.50 -3 -0.50 -2.25 0 -2.75 -0.15 -3 -1 -0.40 -1.30 -1.50 -1.25 -2.85 0.10 -0.75 0.75 -1.90 1.15 -3.75 1.30 l-2.65 0.20 0 -3.55 c0 -3.35 0.05 -3.55 0.95 -3.10 0.75 0.40 1.20 0.25 2.25 -0.80 0.70 -0.70 1.30 -1.55 1.30 -1.90 0 -0.85 5.95 -1.95 8.15 -1.55 1 0.20 2 0.05 2.50 -0.35 0.80 -0.55 0.80 -0.80 0.20 -2.60 -0.45 -1.35 -0.55 -2.50 -0.25 -3.50 0.20 -0.80 0.40 -2.05 0.35 -2.75 -0.15 -2.70 0 -3 1.45 -3 0.75 0 1.65 -0.20 2.05 -0.45 0.50 -0.35 1.20 -0.10 2.30 0.75 1.85 1.40 2.25 1.50 2.25 0.45 0 -0.45 0.35 -0.90 0.75 -1.05 0.40 -0.20 0.75 -0.60 0.75 -0.95 0 -1.10 0.95 -1.40 2.50 -0.75 1.25 0.50 1.70 0.45 3.55 -0.65 1.55 -0.95 2.40 -1.15 3.15 -0.85 0.60 0.25 1.65 0.55 2.45 0.70 1.80 0.40 1.90 2.65 0.10 4.30 -0.95 0.90 -1.10 1.30 -0.70 1.85 0.30 0.35 0.45 1.10 0.30 1.70 -0.25 0.90 -0.10 1 1.45 0.85 l1.75 -0.15 1.95 5.75 c1.10 3.15 2 5.95 2 6.15 0 0.20 -1.40 0.35 -3.10 0.25 -3.10 -0.15 -3.15 -0.20 -3.30 -1.65 -0.25 -2.25 -0.95 -2.75 -3.80 -2.75 -1.45 0 -2.85 -0.25 -3.15 -0.55 -0.40 -0.40 -0.85 -0.40 -1.55 0 -0.55 0.30 -2.35 0.55 -3.95 0.55 -2.75 0 -2.95 0.10 -3.55 1.50 -0.40 0.85 -1 1.50 -1.40 1.50 -0.45 0 -0.70 0.60 -0.70 1.90 l-0.05 1.85 -1 -1.75 -0.95 -1.75 0.30 2.50 c0.15 1.40 0.40 2.90 0.55 3.40 0.15 0.65 -0.10 0.85 -1.05 0.85 -0.70 0 -1.40 -0.20 -1.55 -0.50z"/>
  <path d="M176.35 70 c-2.75 -1.75 -5.80 -4.70 -6.80 -6.65 -0.65 -1.25 -0.60 -1.40 0.55 -2.55 l1.30 -1.15 1.10 1.05 1.10 1.05 -0.35 -1.65 c-0.45 -2.20 0.75 -3.60 3.05 -3.50 2.05 0.10 2.50 1.15 2.95 7.65 0.15 2.50 0.40 5.10 0.55 5.90 0.35 1.75 -0.40 1.75 -3.45 -0.15z"/>
  <path d="M188.70 55.95 c-0.50 -0.60 -2.40 -2.20 -4.20 -3.60 -1.80 -1.40 -3.45 -2.70 -3.70 -2.95 -0.30 -0.25 -0.20 -0.65 0.30 -1 0.45 -0.35 0.95 -1.15 1.15 -1.75 0.25 -0.90 0.05 -1.20 -0.95 -1.45 -0.65 -0.15 -1.60 -0.70 -2.10 -1.25 -0.45 -0.50 -1.30 -0.95 -1.85 -0.95 -0.75 0 -0.55 -0.30 0.85 -1.25 1 -0.70 2.25 -1.25 2.75 -1.25 3.30 0 19.55 5.25 19.55 6.30 0 0.30 -0.65 0.85 -1.50 1.20 -0.80 0.35 -1.75 0.90 -2.05 1.30 -0.65 0.80 -3.75 0.95 -4.20 0.20 -0.70 -1.15 -1.10 -0.35 -0.90 1.70 0.20 1.75 0.05 2.55 -0.95 4 l-1.25 1.80 -0.95 -1.05z"/>
 </g>
 <g fill="#6cb37c">
  <path d="M134.25 226 c-0.20 -0.30 0.10 -1.35 0.60 -2.40 0.85 -1.70 1.05 -1.85 3.35 -2 3.25 -0.20 4.85 0.20 4.50 1.15 -0.20 0.40 -0.70 0.75 -1.15 0.75 -0.45 0 -1.25 0.70 -1.70 1.50 -0.80 1.30 -1.20 1.50 -3.10 1.50 -1.20 0 -2.35 -0.25 -2.50 -0.50z"/>
  <path d="M197.20 179.10 c-0.30 -0.20 -0.65 -0.70 -0.80 -1.15 -0.45 -1.20 -5.65 -2.75 -7.30 -2.15 -1.10 0.40 -1.55 0.25 -2.80 -0.90 -1.30 -1.20 -1.40 -1.50 -0.90 -2.60 0.50 -1.10 0.45 -1.35 -0.55 -1.85 -1.70 -0.90 -1.85 -1.45 -0.90 -3.90 0.50 -1.25 1.20 -3.50 1.55 -4.90 0.55 -2.55 0.65 -2.65 2.25 -2.65 0.95 0 2.45 0.45 3.35 0.95 0.90 0.55 2.60 1.25 3.80 1.60 2 0.60 2.10 0.70 2.10 2.50 0 2.10 1.20 2.90 2.95 2 0.55 -0.30 1.70 -0.55 2.55 -0.55 1.35 0 1.70 0.30 2.50 2.15 1.65 3.55 1.35 4.80 -1.60 7.65 -2.50 2.40 -4.80 4.20 -5.40 4.20 -0.15 0 -0.50 -0.20 -0.80 -0.40z"/>
  <path d="M178.30 168.85 c-0.50 -1.40 -1.65 -3.75 -2.55 -5.10 -1.60 -2.50 -6.65 -7.50 -7.15 -7.05 -0.15 0.15 0.70 1.50 1.85 3.05 3 4 3.10 4.45 0.95 4.05 -1.50 -0.25 -1.80 -0.15 -2.05 0.70 -0.90 3.40 -6 -1.95 -8.10 -8.50 -0.50 -1.50 -1.40 -3.80 -2.05 -5.10 -0.65 -1.30 -1.20 -2.50 -1.20 -2.65 0 -1.15 7.60 0.85 11.20 2.95 2.90 1.70 7.40 6.75 8.95 9.95 1.35 2.90 3.55 9.35 3.30 9.55 -0.10 0.10 -0.65 0.30 -1.20 0.50 -0.85 0.25 -1.15 -0.10 -1.95 -2.35z"/>
  <path d="M213.15 156 c-1.20 -1.50 -1.50 -3.95 -0.60 -4.85 0.30 -0.30 0.45 -1.15 0.35 -1.95 -0.15 -1.30 -0.35 -1.45 -2.25 -1.60 -1.90 -0.15 -2.15 -0.30 -2.15 -1.35 0 -1.55 -2.40 -3.25 -4.65 -3.25 -2.85 0 -3 -0.55 -2.50 -8.85 0.35 -6.20 0.55 -7.40 1.20 -7.55 0.50 -0.10 0.95 0.25 1.10 0.85 0.25 0.95 0.55 1 4.40 0.85 2.60 -0.15 4.45 0 4.85 0.35 0.40 0.30 1.60 0.65 2.75 0.80 l2.10 0.30 0.15 7.75 c0.05 4.25 -0.10 9.35 -0.40 11.25 -0.70 4.45 -2 8.75 -2.70 8.70 -0.30 0 -1.05 -0.65 -1.65 -1.45z"/>
 </g>
 <g fill="#59c599">
  <path d="M88.65 145.55 c-0.35 -0.60 -0.65 -1.85 -0.65 -2.80 0 -1.05 0.25 -1.75 0.65 -1.80 0.30 0 -0.20 -0.35 -1.20 -0.75 -1.80 -0.75 -1.85 -0.85 -2.20 -4.05 -0.35 -3.50 -0.20 -3.90 1.75 -4.40 1.20 -0.30 1.35 -0.10 3.40 6.10 2.80 8.30 2.80 8.35 0.60 8.55 -1.30 0.10 -1.90 -0.10 -2.35 -0.85z"/>
  <path d="M94.65 134.65 c-0.80 -1.35 -3.05 -5.80 -5.05 -9.95 -3.40 -7.15 -4.30 -10.20 -3.05 -10.20 0.90 0 1.90 -1.60 1.95 -3.15 l0 -1.35 1.80 0.75 c2.25 0.95 3.40 0.95 6.15 -0.05 1.95 -0.65 2.30 -0.65 3.35 0.05 0.80 0.50 1.80 0.70 2.85 0.50 2.35 -0.40 4.05 0.65 4.35 2.75 0.25 1.70 0.30 1.75 2.40 1.70 l2.20 0 1.95 3.90 c1.10 2.15 2.85 5.35 3.95 7.15 1.10 1.80 2 3.40 2 3.50 0 0.40 -3.90 0.30 -4.10 -0.10 -0.05 -0.25 -1 -0.85 -2 -1.35 -1.75 -0.90 -1.90 -1.15 -1.90 -3.10 0 -2.50 -0.60 -3.05 -2.20 -2.05 -0.60 0.45 -2.90 0.90 -5.10 1.10 -3.75 0.35 -4 0.45 -5.30 2.10 -1.05 1.35 -1.25 2 -0.90 2.70 0.65 1.20 0.65 5.25 0 6.50 -0.85 1.55 -1.80 1.10 -3.35 -1.40z"/>
  <path d="M70.40 130.65 c-0.45 -0.10 -0.90 -0.70 -1.05 -1.30 -0.60 -2.35 -0.95 -8.35 -0.55 -8.40 2.80 -0.20 3.95 -0.45 4.10 -0.90 0.65 -2 5.75 -2.35 6.40 -0.45 0.25 0.80 0.70 0.95 2.75 0.85 2.95 -0.15 4.20 0.75 4.65 3.45 0.15 1 0.45 2.60 0.60 3.55 l0.35 1.70 -1.95 -0.35 c-6.30 -1 -6.85 -1 -9.05 0.65 -2.05 1.50 -3.85 1.85 -6.25 1.20z"/>
  <path d="M206.20 85.40 c-0.25 -0.35 -0.90 -2.10 -1.50 -3.90 -0.60 -1.80 -1.25 -3.65 -1.45 -4.10 -0.30 -0.75 -0.10 -0.90 1.40 -0.90 0.95 0 2 0.30 2.30 0.70 0.75 0.90 0.95 8.40 0.20 8.65 -0.30 0.10 -0.75 -0.10 -0.95 -0.45z"/>
  <path d="M190.35 57.60 c-1.05 -1.05 -1.85 -2.05 -1.85 -2.30 0 -0.20 0.45 -1.05 1 -1.85 1 -1.35 1 -1.50 0.25 -2.95 -0.75 -1.45 -0.75 -1.55 0.45 -2.75 1.50 -1.50 1.70 -1.50 3.25 -0.30 1.20 0.90 1.25 0.90 2.95 -0.25 2.05 -1.40 3.10 -1.50 5.15 -0.45 1.35 0.75 1.45 0.95 1.15 2.65 -0.20 1 -0.60 2 -0.90 2.20 -0.70 0.45 -3.40 2.75 -5.20 4.40 -0.75 0.70 -2.05 1.80 -2.90 2.35 l-1.55 1.10 -1.80 -1.85z"/>
  <path d="M151.80 56.40 c-1.05 -1.50 -1 -2.50 0.20 -3.80 1.20 -1.25 1.65 -1.35 3.15 -0.55 1.55 0.85 1.90 1.50 1.55 2.90 -0.55 2.55 -3.55 3.40 -4.90 1.45z"/>
 </g>
 <g fill="#77c388">
  <path d="M112.50 233.75 c-0.40 -0.50 -0.55 -1.55 -0.35 -3 0.30 -1.95 0.20 -2.25 -0.55 -2.25 -0.50 0 -1.35 0.35 -1.90 0.75 -0.50 0.40 -1.25 0.75 -1.60 0.75 -0.80 0 -4.30 -7.30 -3.85 -8 0.35 -0.55 2.60 -0.65 5.30 -0.20 1.80 0.30 1.90 0.45 4.40 6 1.40 3.15 2.55 5.95 2.55 6.20 0 0.80 -3.30 0.60 -4 -0.25z"/>
  <path d="M147.40 189.45 c-0.50 -0.25 -0.90 -0.80 -0.90 -1.20 0 -0.40 -0.45 -1 -1 -1.35 -1.05 -0.65 -1.25 -2.05 -0.70 -4.80 0.20 -1.10 0.65 -1.60 1.60 -1.85 0.65 -0.15 1.45 -0.10 1.65 0.10 0.60 0.60 1.20 9.65 0.65 9.65 -0.25 0 -0.85 -0.25 -1.30 -0.55z"/>
  <path d="M122.85 187.90 l-5.40 -1.55 0.35 -1.55 c0.60 -2.85 0.80 -2.90 3.70 -0.95 1.50 1 4.20 2.70 6 3.75 4.05 2.35 2.95 2.45 -4.65 0.30z"/>
  <path d="M204.50 172.75 c0 -0.85 -0.45 -2.45 -1 -3.65 l-0.95 -2.10 -2.20 1.05 c-2.20 1.05 -2.25 1.10 -3.50 0.15 -1 -0.70 -1.30 -1.40 -1.35 -2.75 0 -1.65 -0.15 -1.85 -2.10 -2.45 -1.20 -0.30 -2.80 -0.95 -3.65 -1.40 -0.80 -0.45 -1.95 -0.85 -2.45 -0.95 -0.55 -0.10 -1.10 -0.25 -1.20 -0.35 -0.10 -0.15 0.05 -1.80 0.35 -3.75 0.30 -1.90 0.55 -4.30 0.55 -5.25 l0 -1.80 4 0 c3.80 0 4.10 0.10 5.25 1.40 l1.20 1.35 0.65 -1.50 c0.35 -0.80 1.05 -2.05 1.50 -2.75 0.45 -0.70 1.10 -2.80 1.40 -4.75 0.30 -1.90 0.65 -3.60 0.80 -3.70 0.10 -0.15 0.60 0.30 1 0.90 0.65 0.90 1.15 1.10 2.30 0.85 2.05 -0.40 5.45 2.15 5 3.80 -0.25 1.10 0.15 1.10 2.55 0.15 0.65 -0.30 1 0.05 1.60 1.45 0.95 2.20 0.95 3.65 0.05 5.40 -0.65 1.20 -0.60 1.40 0.25 2.20 0.50 0.45 0.95 1.25 0.95 1.75 0 2.75 -5.65 13 -8.95 16.20 l-2.05 1.95 0 -1.45z"/>
  <path d="M177.60 149.20 c-2.10 -1.45 -0.90 -5.20 1.75 -5.20 2.35 0 3.55 3.55 1.75 5.15 -1.15 1.05 -2.05 1.05 -3.50 0.05z"/>
  <path d="M203.55 123.30 c-0.35 -0.40 -0.55 -1.60 -0.45 -2.65 l0.15 -1.90 2.75 -0.35 c1.50 -0.25 3.55 -0.25 4.50 -0.10 l1.75 0.30 -2.10 1 c-1.15 0.55 -2.85 1.75 -3.85 2.70 -2 1.95 -2 1.95 -2.75 1z"/>
 </g>
 <g fill="#62d09e">
  <path d="M85.15 164.90 c-4.85 -5.30 -10.25 -14.70 -12.55 -21.90 -1.90 -5.90 -3.10 -11.15 -3.10 -13.65 l0 -2.45 1.70 1.30 1.75 1.30 2.80 -1.95 c2.40 -1.70 3.05 -1.90 4.10 -1.50 0.65 0.25 1.70 0.35 2.35 0.15 0.60 -0.15 1.70 0.10 2.50 0.50 0.80 0.40 1.70 0.60 2 0.50 0.40 -0.15 0.85 0.70 1.20 2.30 0.80 3.50 0.75 3.85 -0.50 4.15 -0.90 0.25 -0.95 0.40 -0.45 1.05 0.40 0.45 0.55 1.30 0.35 2 -0.25 1.05 -0.05 1.30 1.65 1.95 2.30 0.95 2.95 2.50 1.45 3.55 -0.80 0.60 -0.90 0.85 -0.35 1.65 0.40 0.65 1 0.90 1.70 0.75 0.90 -0.15 1.20 0.10 1.45 1.20 0.55 2.20 4.90 11.10 7.45 15.20 2.15 3.50 2.25 3.75 1.25 3.90 -1.85 0.30 -5.15 -0.90 -5.65 -2.05 -0.40 -0.85 -1 -1.15 -2.75 -1.25 l-2.25 -0.15 0.15 2.45 c0.20 2.40 0.15 2.45 -1.40 2.80 -2.55 0.50 -2.75 0.40 -4.85 -1.80z"/>
  <path d="M106.10 152.45 c-3.15 -4.30 -8.60 -12.60 -10.05 -15.35 -0.50 -0.90 -0.45 -1.35 0.20 -2.20 0.95 -1.40 0.95 -2.95 0 -4.20 -1.15 -1.50 -0.90 -2.65 1.10 -5.25 1.70 -2.25 2 -2.45 3.50 -2.15 1.15 0.20 2.05 0.05 2.95 -0.55 0.90 -0.55 1.45 -0.65 1.90 -0.30 0.45 0.35 1.30 0.15 3.05 -0.75 2.45 -1.20 2.45 -1.20 3.45 -0.25 0.65 0.70 0.95 1.60 0.90 2.95 -0.10 1.80 0.10 2.05 1.80 2.90 1 0.50 1.95 1.10 2 1.35 0.10 0.20 0.55 0.35 1.05 0.35 0.50 0 2.15 1.95 4.20 5.05 3.10 4.65 3.35 5.15 2.65 5.90 -0.45 0.50 -0.80 1.40 -0.80 2.10 0 0.85 -1.20 2.35 -3.90 5.05 -3.50 3.50 -4.05 3.85 -6.10 4 -2.15 0.15 -2.25 0.25 -2.55 1.95 -0.15 0.95 -0.60 2.30 -1.05 2.90 -0.80 1.15 -0.85 1.15 -4.30 -3.50z"/>
  <path d="M204.60 78.25 c-0.65 -0.35 -1.85 -2.05 -2.65 -3.80 -2.25 -4.75 -4.80 -8.80 -8.15 -12.90 -2.85 -3.50 -2.95 -3.70 -2 -4.35 1 -0.70 3.40 -2.75 6.55 -5.55 1 -0.90 2 -1.65 2.25 -1.65 0.20 0 0.40 -0.55 0.40 -1.20 0 -1.85 0.75 -2 3.75 -0.60 l2.75 1.25 0 14.75 c0 13.80 -0.05 14.80 -0.85 14.75 -0.50 -0.05 -1.40 -0.35 -2.05 -0.70z"/>
 </g>
 <g fill="#76d095">
  <path d="M171.60 261.25 c-5.75 -1.60 -11.05 -6.35 -13.15 -11.65 -1.65 -4.05 -1.60 -12.05 0 -16.25 2.25 -5.70 8.15 -10.50 14.60 -11.90 3.30 -0.70 8.95 -0.30 12.10 0.90 2.40 0.90 6.90 3.95 7.20 4.90 0.05 0.30 -0.65 1.40 -1.55 2.50 l-1.70 2 -1.45 -1.15 c-4.60 -3.70 -11.10 -4.45 -16.25 -1.95 -5.35 2.60 -7.70 7.05 -7.30 13.80 0.40 6.70 3.75 11.10 9.80 12.85 4.85 1.45 12 -0.30 13.45 -3.30 0.65 -1.30 0.85 -5.35 0.35 -6.70 -0.25 -0.65 -1.20 -0.80 -5.20 -0.80 -4.80 0 -4.90 0 -5.20 -1.25 -0.20 -0.70 -0.20 -1.80 0 -2.50 l0.30 -1.25 7.95 0 7.95 0 -0.10 8.10 -0.15 8.10 -2.50 1.90 c-1.35 1.05 -3.75 2.40 -5.25 2.95 -3.60 1.40 -10.30 1.70 -13.90 0.70z"/>
  <path d="M121.45 259.40 c-0.60 -1.15 -4.10 -8.50 -7.80 -16.35 l-6.70 -14.20 1.55 -1.40 c1.20 -1.10 1.75 -1.35 2.65 -1 0.60 0.20 1.35 0.30 1.65 0.20 0.95 -0.30 1.80 2.50 1.25 3.95 -0.55 1.40 0.10 2.50 1.25 2.05 0.65 -0.25 3.60 5.45 6.70 13 0.65 1.55 1.30 2.85 1.50 2.85 0.15 0 0.60 -0.85 0.95 -1.85 0.75 -2 9.90 -22.15 10.25 -22.50 0.10 -0.15 0.70 0.10 1.30 0.45 1.10 0.65 1.60 0.30 2.95 -2 0.25 -0.40 1.05 -0.60 2.20 -0.50 l1.80 0.15 -5.65 12 c-3.10 6.60 -7.25 15.40 -9.15 19.50 -4.05 8.65 -4.85 9.30 -6.70 5.65z"/>
  <path d="M143.15 187.20 c-10.70 -6.05 -24.40 -18.45 -34.10 -30.85 -0.60 -0.75 -0.55 -1.10 0.25 -2.60 0.75 -1.45 0.80 -1.95 0.35 -2.70 -0.55 -0.85 -0.45 -1 1 -1.35 0.90 -0.20 2.15 -0.35 2.85 -0.30 0.95 0.10 2.20 -0.85 5.15 -3.85 3.45 -3.50 3.85 -4.10 3.40 -4.95 -0.70 -1.30 -0.70 -1.60 0.05 -1.60 0.30 0 0.95 -0.35 1.45 -0.80 0.80 -0.70 1.25 -0.20 6.35 7.15 7.40 10.60 10.25 15.30 13.65 22.40 2.80 5.80 5.20 12.95 4.65 13.80 -0.15 0.25 -0.55 0.45 -0.90 0.45 -1.30 0 -1.25 2.50 0 3.75 1.25 1.25 1.65 3.75 0.60 3.75 -0.35 0 -2.50 -1.05 -4.75 -2.30z"/>
  <path d="M113 184.55 c-9.05 -3.70 -17.10 -8.90 -23.75 -15.35 l-3.50 -3.40 2.15 -0.45 c2.40 -0.55 2.55 -1.05 1 -2.70 l-1.05 -1.15 1.05 -1.15 c0.60 -0.65 1.10 -1.40 1.10 -1.70 0 -1.05 1.25 -1 1.80 0.05 0.40 0.85 0.90 1.05 2.80 0.95 2.15 -0.15 2.40 0 2.95 1.30 0.50 1.10 1.20 1.65 2.70 2.05 1.15 0.30 2.35 1.05 2.70 1.65 2.80 4.55 11.15 13.75 15.70 17.20 1.25 0.95 1.35 1.30 1.05 2.85 -0.20 1.20 -0.60 1.80 -1.15 1.80 -0.45 0 -2.95 -0.90 -5.55 -1.95z"/>
  <path d="M195.20 153 c-1.50 -2.10 -2.85 -2.50 -4.80 -1.45 -0.75 0.40 -1.35 0.40 -2.20 -0.10 l-1.20 -0.60 0 -11.20 c0 -11 0 -11.25 -1.30 -13.95 -1.60 -3.40 -3.60 -4.55 -9.45 -5.30 -3 -0.35 -4.25 -0.75 -4.25 -1.20 0 -0.60 2.95 -0.70 17 -0.70 9.35 0 17 0.15 17 0.35 0 0.15 -0.35 0.75 -0.80 1.25 -0.70 0.75 -0.75 1 -0.20 1.65 0.55 0.65 0.45 1.15 -0.50 2.90 -1.25 2.15 -1.25 2.10 -1.75 15.65 -0.15 5.10 -0.90 8.90 -1.75 9.45 -0.30 0.15 -1 1.40 -1.55 2.80 -1.30 3 -2.25 3.15 -4.25 0.45z"/>
 </g>
<g opacity="0.5" transform="rotate(-45, 150.0, 150.0)">
  <text x="50%" y="50%" font-size="20" text-anchor="middle" fill="lightgray" dominant-baseline="middle">
    generated by vectorizer.io
  </text>
</g>
</svg>